<svg width="149" height="55" viewBox="0 0 149 55" fill="none" xmlns="http://www.w3.org/2000/svg">
<g clip-path="url(#clip0_8_572)">
<ellipse cx="39.4195" cy="27.5309" rx="15.6426" ry="15.663" fill="#FFA53B"/>
<path d="M8.69557 27.8442C8.69557 30.0591 6.90261 31.8531 4.69278 31.8531C2.48295 31.8531 0.69 30.0591 0.69 27.8442C0.69 25.6293 2.48295 23.8353 4.69278 23.8353C6.90261 23.8353 8.69557 25.6293 8.69557 27.8442Z" stroke="white" stroke-width="1.38"/>
<path d="M39.9074 28.0189C40.1769 27.7494 40.1769 27.3126 39.9074 27.0431L35.5163 22.652C35.2468 22.3825 34.8099 22.3825 34.5405 22.652C34.271 22.9214 34.271 23.3583 34.5405 23.6278L38.4437 27.531L34.5405 31.4342C34.271 31.7037 34.271 32.1406 34.5405 32.41C34.8099 32.6795 35.2468 32.6795 35.5163 32.41L39.9074 28.0189ZM8.13428 28.221H39.4195V26.841H8.13428V28.221Z" fill="white"/>
<path d="M66.9751 28L60.4589 12.8961H64.2349L69.9312 26.2738H67.7088L73.4914 12.8961H76.9653L70.4275 28H66.9751ZM82.4866 28.1726C81.5229 28.1726 80.6598 27.9856 79.8974 27.6116C79.1494 27.2376 78.5668 26.6694 78.1497 25.907C77.7325 25.1303 77.5239 24.1449 77.5239 22.951V16.3916H80.8899V22.4547C80.8899 23.4185 81.0913 24.1305 81.4941 24.5908C81.9113 25.0368 82.4938 25.2597 83.2418 25.2597C83.7597 25.2597 84.22 25.1518 84.6228 24.9361C85.0255 24.7059 85.342 24.3607 85.5722 23.9004C85.8023 23.4257 85.9174 22.8359 85.9174 22.1311V16.3916H89.2834V28H86.09V24.8066L86.6726 25.7344C86.2842 26.54 85.7088 27.1513 84.9464 27.5685C84.1984 27.9712 83.3785 28.1726 82.4866 28.1726ZM92.4018 28V11.9899H95.7678V28H92.4018ZM105.753 28.1726C104.775 28.1726 103.919 27.9568 103.186 27.5253C102.452 27.0938 101.877 26.4393 101.459 25.5618C101.057 24.6699 100.855 23.5479 100.855 22.1958C100.855 20.8292 101.049 19.7072 101.438 18.8298C101.826 17.9523 102.387 17.2978 103.121 16.8663C103.854 16.4347 104.732 16.219 105.753 16.219C106.846 16.219 107.825 16.4707 108.688 16.9741C109.565 17.4632 110.256 18.1537 110.759 19.0455C111.277 19.9374 111.536 20.9875 111.536 22.1958C111.536 23.4185 111.277 24.4758 110.759 25.3676C110.256 26.2595 109.565 26.9499 108.688 27.439C107.825 27.9281 106.846 28.1726 105.753 28.1726ZM98.8917 32.1859V16.3916H102.107V18.765L102.042 22.2174L102.258 25.6481V32.1859H98.8917ZM105.171 25.4108C105.732 25.4108 106.228 25.2813 106.659 25.0224C107.105 24.7634 107.458 24.3966 107.717 23.9219C107.99 23.4329 108.127 22.8575 108.127 22.1958C108.127 21.5197 107.99 20.9443 107.717 20.4696C107.458 19.9949 107.105 19.6281 106.659 19.3692C106.228 19.1103 105.732 18.9808 105.171 18.9808C104.61 18.9808 104.106 19.1103 103.66 19.3692C103.214 19.6281 102.862 19.9949 102.603 20.4696C102.344 20.9443 102.215 21.5197 102.215 22.1958C102.215 22.8575 102.344 23.4329 102.603 23.9219C102.862 24.3966 103.214 24.7634 103.66 25.0224C104.106 25.2813 104.61 25.4108 105.171 25.4108ZM119.55 28.1726C118.227 28.1726 117.062 27.9137 116.055 27.3958C115.062 26.878 114.293 26.1731 113.746 25.2813C113.199 24.3751 112.926 23.3466 112.926 22.1958C112.926 21.0306 113.192 20.0021 113.724 19.1103C114.271 18.204 115.012 17.4992 115.947 16.9957C116.882 16.4779 117.939 16.219 119.119 16.219C120.255 16.219 121.276 16.4635 122.183 16.9526C123.103 17.4273 123.83 18.1177 124.362 19.024C124.894 19.9158 125.16 20.9875 125.16 22.2389C125.16 22.3684 125.153 22.5194 125.139 22.6921C125.124 22.8503 125.11 23.0013 125.096 23.1452H115.666V21.1817H123.326L122.032 21.7642C122.032 21.1601 121.909 20.635 121.665 20.1891C121.42 19.7432 121.082 19.398 120.651 19.1534C120.219 18.8945 119.716 18.765 119.14 18.765C118.565 18.765 118.054 18.8945 117.608 19.1534C117.177 19.398 116.839 19.7504 116.594 20.2107C116.35 20.6566 116.227 21.1889 116.227 21.8074V22.3252C116.227 22.9582 116.364 23.5192 116.637 24.0083C116.925 24.4829 117.321 24.8498 117.824 25.1087C118.342 25.3532 118.946 25.4755 119.637 25.4755C120.255 25.4755 120.794 25.382 121.255 25.195C121.729 25.008 122.161 24.7275 122.549 24.3535L124.34 26.2954C123.808 26.8996 123.139 27.3671 122.334 27.6979C121.528 28.0144 120.6 28.1726 119.55 28.1726ZM133.162 28.1726C131.839 28.1726 130.674 27.9137 129.667 27.3958C128.674 26.878 127.905 26.1731 127.358 25.2813C126.811 24.3751 126.538 23.3466 126.538 22.1958C126.538 21.0306 126.804 20.0021 127.336 19.1103C127.883 18.204 128.624 17.4992 129.559 16.9957C130.494 16.4779 131.551 16.219 132.731 16.219C133.867 16.219 134.888 16.4635 135.795 16.9526C136.715 17.4273 137.442 18.1177 137.974 19.024C138.506 19.9158 138.772 20.9875 138.772 22.2389C138.772 22.3684 138.765 22.5194 138.751 22.6921C138.736 22.8503 138.722 23.0013 138.708 23.1452H129.278V21.1817H136.938L135.644 21.7642C135.644 21.1601 135.521 20.635 135.277 20.1891C135.032 19.7432 134.694 19.398 134.263 19.1534C133.831 18.8945 133.328 18.765 132.752 18.765C132.177 18.765 131.666 18.8945 131.22 19.1534C130.789 19.398 130.451 19.7504 130.206 20.2107C129.962 20.6566 129.839 21.1889 129.839 21.8074V22.3252C129.839 22.9582 129.976 23.5192 130.249 24.0083C130.537 24.4829 130.933 24.8498 131.436 25.1087C131.954 25.3532 132.558 25.4755 133.249 25.4755C133.867 25.4755 134.407 25.382 134.867 25.195C135.342 25.008 135.773 24.7275 136.161 24.3535L137.952 26.2954C137.42 26.8996 136.751 27.3671 135.946 27.6979C135.14 28.0144 134.212 28.1726 133.162 28.1726Z" fill="#FFA53B"/>
<path d="M84.1066 41.3537C83.8572 41.3537 83.6175 41.3138 83.3873 41.2338C83.1604 41.1507 82.9846 41.0452 82.8599 40.9174L82.999 40.6441C83.1172 40.7592 83.2755 40.8567 83.4737 40.9366C83.675 41.0133 83.886 41.0516 84.1066 41.0516C84.3176 41.0516 84.4886 41.0261 84.6196 40.9749C84.7539 40.9206 84.8514 40.8487 84.9121 40.7592C84.9761 40.6696 85.008 40.5706 85.008 40.4619C85.008 40.3308 84.9697 40.2253 84.8929 40.1454C84.8194 40.0655 84.7219 40.0032 84.6005 39.9584C84.479 39.9105 84.3447 39.8689 84.1977 39.8337C84.0506 39.7986 83.9036 39.7618 83.7566 39.7235C83.6095 39.6819 83.4737 39.6276 83.349 39.5604C83.2275 39.4933 83.1284 39.4054 83.0517 39.2967C82.9782 39.1848 82.9414 39.0394 82.9414 38.8604C82.9414 38.6942 82.9846 38.5423 83.0709 38.4049C83.1604 38.2642 83.2962 38.1523 83.4785 38.0692C83.6607 37.9829 83.894 37.9398 84.1785 37.9398C84.3671 37.9398 84.5541 37.9669 84.7395 38.0213C84.9249 38.0724 85.0847 38.1443 85.219 38.237L85.0991 38.5199C84.9553 38.424 84.8018 38.3537 84.6388 38.309C84.479 38.2642 84.324 38.2418 84.1737 38.2418C83.9723 38.2418 83.8061 38.269 83.675 38.3233C83.544 38.3777 83.4465 38.4512 83.3826 38.5439C83.3218 38.6334 83.2915 38.7357 83.2915 38.8508C83.2915 38.9818 83.3282 39.0873 83.4017 39.1673C83.4785 39.2472 83.5775 39.3095 83.699 39.3543C83.8237 39.399 83.9595 39.439 84.1066 39.4741C84.2536 39.5093 84.3991 39.5476 84.5429 39.5892C84.69 39.6308 84.8242 39.6851 84.9457 39.7522C85.0704 39.8162 85.1695 39.9025 85.243 40.0112C85.3197 40.1198 85.358 40.2621 85.358 40.4379C85.358 40.6009 85.3133 40.7528 85.2238 40.8934C85.1343 41.0309 84.9968 41.1427 84.8114 41.2291C84.6292 41.3122 84.3943 41.3537 84.1066 41.3537ZM87.1285 41.3489C86.8664 41.3489 86.6362 41.2946 86.438 41.1859C86.2398 41.074 86.0848 40.9222 85.9729 40.7304C85.861 40.5354 85.8051 40.3132 85.8051 40.0639C85.8051 39.8146 85.8578 39.594 85.9633 39.4022C86.072 39.2104 86.2191 39.0602 86.4045 38.9515C86.5931 38.8396 86.804 38.7837 87.0374 38.7837C87.2739 38.7837 87.4833 38.838 87.6655 38.9467C87.8509 39.0522 87.9964 39.2024 88.1019 39.3974C88.2073 39.5892 88.2601 39.8114 88.2601 40.0639C88.2601 40.0799 88.2585 40.0975 88.2553 40.1166C88.2553 40.1326 88.2553 40.1502 88.2553 40.1694H86.064V39.9153H88.0731L87.9388 40.0159C87.9388 39.8337 87.8989 39.6723 87.819 39.5317C87.7422 39.3878 87.6367 39.2759 87.5025 39.196C87.3682 39.1161 87.2132 39.0761 87.0374 39.0761C86.8648 39.0761 86.7097 39.1161 86.5723 39.196C86.4348 39.2759 86.3277 39.3878 86.251 39.5317C86.1743 39.6755 86.1359 39.8401 86.1359 40.0255V40.0783C86.1359 40.2701 86.1775 40.4395 86.2606 40.5865C86.3469 40.7304 86.4652 40.8439 86.6154 40.927C86.7689 41.0069 86.9431 41.0468 87.1381 41.0468C87.2915 41.0468 87.4338 41.0197 87.5648 40.9653C87.6991 40.911 87.8142 40.8279 87.9101 40.716L88.1019 40.9366C87.99 41.0708 87.8493 41.1731 87.6799 41.2434C87.5137 41.3138 87.3299 41.3489 87.1285 41.3489ZM89.9935 41.3489C89.7793 41.3489 89.5923 41.309 89.4325 41.2291C89.2727 41.1491 89.148 41.0293 89.0585 40.8694C88.9722 40.7096 88.929 40.5098 88.929 40.2701V38.8076H89.2695V40.2317C89.2695 40.5002 89.335 40.7032 89.4661 40.8407C89.6003 40.9749 89.7873 41.0421 90.0271 41.0421C90.2029 41.0421 90.3547 41.0069 90.4826 40.9366C90.6136 40.863 90.7127 40.7576 90.7799 40.6201C90.8502 40.4826 90.8854 40.318 90.8854 40.1262V38.8076H91.2258V41.325H90.8997V40.6345L90.9525 40.7592C90.8726 40.9446 90.7479 41.09 90.5785 41.1955C90.4123 41.2978 90.2173 41.3489 89.9935 41.3489ZM92.9644 41.325L94.4988 37.9685H94.8488L96.3832 41.325H96.0091L94.5995 38.1747H94.7433L93.3336 41.325H92.9644ZM93.5685 40.4283L93.674 40.1406H95.6256L95.731 40.4283H93.5685ZM98.1659 41.3489C97.9485 41.3489 97.7519 41.2994 97.5761 41.2003C97.4003 41.098 97.2596 40.9525 97.1542 40.7639C97.0519 40.5722 97.0007 40.3388 97.0007 40.0639C97.0007 39.789 97.0519 39.5572 97.1542 39.3686C97.2564 39.1768 97.3955 39.0314 97.5713 38.9323C97.7471 38.8332 97.9453 38.7837 98.1659 38.7837C98.4056 38.7837 98.6198 38.838 98.8084 38.9467C99.0002 39.0522 99.1504 39.2024 99.2591 39.3974C99.3678 39.5892 99.4221 39.8114 99.4221 40.0639C99.4221 40.3196 99.3678 40.5434 99.2591 40.7352C99.1504 40.927 99.0002 41.0772 98.8084 41.1859C98.6198 41.2946 98.4056 41.3489 98.1659 41.3489ZM96.8665 42.2552V38.8076H97.1925V39.5652L97.1589 40.0687L97.2069 40.5769V42.2552H96.8665ZM98.1419 41.0468C98.3209 41.0468 98.4807 41.0069 98.6214 40.927C98.762 40.8439 98.8739 40.7288 98.957 40.5817C99.0401 40.4315 99.0817 40.2589 99.0817 40.0639C99.0817 39.8689 99.0401 39.6979 98.957 39.5508C98.8739 39.4038 98.762 39.2887 98.6214 39.2056C98.4807 39.1225 98.3209 39.0809 98.1419 39.0809C97.9629 39.0809 97.8015 39.1225 97.6576 39.2056C97.517 39.2887 97.4051 39.4038 97.322 39.5508C97.2421 39.6979 97.2021 39.8689 97.2021 40.0639C97.2021 40.2589 97.2421 40.4315 97.322 40.5817C97.4051 40.7288 97.517 40.8439 97.6576 40.927C97.8015 41.0069 97.9629 41.0468 98.1419 41.0468ZM101.416 41.3489C101.198 41.3489 101.002 41.2994 100.826 41.2003C100.65 41.098 100.509 40.9525 100.404 40.7639C100.302 40.5722 100.25 40.3388 100.25 40.0639C100.25 39.789 100.302 39.5572 100.404 39.3686C100.506 39.1768 100.645 39.0314 100.821 38.9323C100.997 38.8332 101.195 38.7837 101.416 38.7837C101.655 38.7837 101.869 38.838 102.058 38.9467C102.25 39.0522 102.4 39.2024 102.509 39.3974C102.617 39.5892 102.672 39.8114 102.672 40.0639C102.672 40.3196 102.617 40.5434 102.509 40.7352C102.4 40.927 102.25 41.0772 102.058 41.1859C101.869 41.2946 101.655 41.3489 101.416 41.3489ZM100.116 42.2552V38.8076H100.442V39.5652L100.409 40.0687L100.457 40.5769V42.2552H100.116ZM101.392 41.0468C101.571 41.0468 101.73 41.0069 101.871 40.927C102.012 40.8439 102.124 40.7288 102.207 40.5817C102.29 40.4315 102.331 40.2589 102.331 40.0639C102.331 39.8689 102.29 39.6979 102.207 39.5508C102.124 39.4038 102.012 39.2887 101.871 39.2056C101.73 39.1225 101.571 39.0809 101.392 39.0809C101.213 39.0809 101.051 39.1225 100.907 39.2056C100.767 39.2887 100.655 39.4038 100.572 39.5508C100.492 39.6979 100.452 39.8689 100.452 40.0639C100.452 40.2589 100.492 40.4315 100.572 40.5817C100.655 40.7288 100.767 40.8439 100.907 40.927C101.051 41.0069 101.213 41.0468 101.392 41.0468ZM104.693 41.325V37.9685H106.059C106.417 37.9685 106.73 38.0405 106.999 38.1843C107.271 38.3249 107.482 38.5215 107.632 38.7741C107.782 39.0266 107.857 39.3175 107.857 39.6467C107.857 39.976 107.782 40.2669 107.632 40.5194C107.482 40.7719 107.271 40.9701 106.999 41.114C106.73 41.2546 106.417 41.325 106.059 41.325H104.693ZM105.047 41.0181H106.04C106.337 41.0181 106.595 40.9605 106.812 40.8455C107.033 40.7272 107.204 40.5658 107.325 40.3612C107.446 40.1534 107.507 39.9153 107.507 39.6467C107.507 39.375 107.446 39.1369 107.325 38.9323C107.204 38.7277 107.033 38.5679 106.812 38.4528C106.595 38.3345 106.337 38.2754 106.04 38.2754H105.047V41.0181ZM109.651 41.3489C109.389 41.3489 109.159 41.2946 108.961 41.1859C108.763 41.074 108.608 40.9222 108.496 40.7304C108.384 40.5354 108.328 40.3132 108.328 40.0639C108.328 39.8146 108.381 39.594 108.486 39.4022C108.595 39.2104 108.742 39.0602 108.927 38.9515C109.116 38.8396 109.327 38.7837 109.56 38.7837C109.797 38.7837 110.006 38.838 110.188 38.9467C110.374 39.0522 110.519 39.2024 110.625 39.3974C110.73 39.5892 110.783 39.8114 110.783 40.0639C110.783 40.0799 110.781 40.0975 110.778 40.1166C110.778 40.1326 110.778 40.1502 110.778 40.1694H108.587V39.9153H110.596L110.462 40.0159C110.462 39.8337 110.422 39.6723 110.342 39.5317C110.265 39.3878 110.16 39.2759 110.025 39.196C109.891 39.1161 109.736 39.0761 109.56 39.0761C109.388 39.0761 109.233 39.1161 109.095 39.196C108.958 39.2759 108.851 39.3878 108.774 39.5317C108.697 39.6755 108.659 39.8401 108.659 40.0255V40.0783C108.659 40.2701 108.7 40.4395 108.783 40.5865C108.87 40.7304 108.988 40.8439 109.138 40.927C109.292 41.0069 109.466 41.0468 109.661 41.0468C109.814 41.0468 109.957 41.0197 110.088 40.9653C110.222 40.911 110.337 40.8279 110.433 40.716L110.625 40.9366C110.513 41.0708 110.372 41.1731 110.203 41.2434C110.037 41.3138 109.853 41.3489 109.651 41.3489ZM112.803 41.325V37.9685H114.169C114.527 37.9685 114.841 38.0405 115.109 38.1843C115.381 38.3249 115.592 38.5215 115.742 38.7741C115.892 39.0266 115.967 39.3175 115.967 39.6467C115.967 39.976 115.892 40.2669 115.742 40.5194C115.592 40.7719 115.381 40.9701 115.109 41.114C114.841 41.2546 114.527 41.325 114.169 41.325H112.803ZM113.158 41.0181H114.15C114.447 41.0181 114.705 40.9605 114.922 40.8455C115.143 40.7272 115.314 40.5658 115.435 40.3612C115.557 40.1534 115.617 39.9153 115.617 39.6467C115.617 39.375 115.557 39.1369 115.435 38.9323C115.314 38.7277 115.143 38.5679 114.922 38.4528C114.705 38.3345 114.447 38.2754 114.15 38.2754H113.158V41.0181ZM117.761 41.3489C117.499 41.3489 117.269 41.2946 117.071 41.1859C116.873 41.074 116.718 40.9222 116.606 40.7304C116.494 40.5354 116.438 40.3132 116.438 40.0639C116.438 39.8146 116.491 39.594 116.596 39.4022C116.705 39.2104 116.852 39.0602 117.037 38.9515C117.226 38.8396 117.437 38.7837 117.67 38.7837C117.907 38.7837 118.116 38.838 118.298 38.9467C118.484 39.0522 118.629 39.2024 118.735 39.3974C118.84 39.5892 118.893 39.8114 118.893 40.0639C118.893 40.0799 118.891 40.0975 118.888 40.1166C118.888 40.1326 118.888 40.1502 118.888 40.1694H116.697V39.9153H118.706L118.572 40.0159C118.572 39.8337 118.532 39.6723 118.452 39.5317C118.375 39.3878 118.27 39.2759 118.135 39.196C118.001 39.1161 117.846 39.0761 117.67 39.0761C117.498 39.0761 117.343 39.1161 117.205 39.196C117.068 39.2759 116.961 39.3878 116.884 39.5317C116.807 39.6755 116.769 39.8401 116.769 40.0255V40.0783C116.769 40.2701 116.81 40.4395 116.894 40.5865C116.98 40.7304 117.098 40.8439 117.248 40.927C117.402 41.0069 117.576 41.0468 117.771 41.0468C117.924 41.0468 118.067 41.0197 118.198 40.9653C118.332 40.911 118.447 40.8279 118.543 40.716L118.735 40.9366C118.623 41.0708 118.482 41.1731 118.313 41.2434C118.147 41.3138 117.963 41.3489 117.761 41.3489ZM119.586 41.325V37.7671H119.926V41.325H119.586ZM120.874 41.325V38.8076H121.214V41.325H120.874ZM121.046 38.2514C120.976 38.2514 120.917 38.2275 120.869 38.1795C120.821 38.1316 120.797 38.074 120.797 38.0069C120.797 37.9398 120.821 37.8838 120.869 37.8391C120.917 37.7911 120.976 37.7671 121.046 37.7671C121.117 37.7671 121.176 37.7895 121.224 37.8343C121.272 37.879 121.296 37.935 121.296 38.0021C121.296 38.0724 121.272 38.1316 121.224 38.1795C121.179 38.2275 121.12 38.2514 121.046 38.2514ZM122.809 41.325L121.691 38.8076H122.046L123.072 41.1427H122.905L123.945 38.8076H124.281L123.159 41.325H122.809ZM125.759 41.3489C125.497 41.3489 125.267 41.2946 125.069 41.1859C124.871 41.074 124.716 40.9222 124.604 40.7304C124.492 40.5354 124.436 40.3132 124.436 40.0639C124.436 39.8146 124.489 39.594 124.594 39.4022C124.703 39.2104 124.85 39.0602 125.035 38.9515C125.224 38.8396 125.435 38.7837 125.668 38.7837C125.905 38.7837 126.114 38.838 126.296 38.9467C126.482 39.0522 126.627 39.2024 126.733 39.3974C126.838 39.5892 126.891 39.8114 126.891 40.0639C126.891 40.0799 126.889 40.0975 126.886 40.1166C126.886 40.1326 126.886 40.1502 126.886 40.1694H124.695V39.9153H126.704L126.57 40.0159C126.57 39.8337 126.53 39.6723 126.45 39.5317C126.373 39.3878 126.267 39.2759 126.133 39.196C125.999 39.1161 125.844 39.0761 125.668 39.0761C125.495 39.0761 125.34 39.1161 125.203 39.196C125.066 39.2759 124.958 39.3878 124.882 39.5317C124.805 39.6755 124.767 39.8401 124.767 40.0255V40.0783C124.767 40.2701 124.808 40.4395 124.891 40.5865C124.978 40.7304 125.096 40.8439 125.246 40.927C125.4 41.0069 125.574 41.0468 125.769 41.0468C125.922 41.0468 126.064 41.0197 126.196 40.9653C126.33 40.911 126.445 40.8279 126.541 40.716L126.733 40.9366C126.621 41.0708 126.48 41.1731 126.311 41.2434C126.144 41.3138 125.961 41.3489 125.759 41.3489ZM127.584 41.325V38.8076H127.91V39.4933L127.876 39.3734C127.947 39.1816 128.065 39.0362 128.231 38.9371C128.397 38.8348 128.603 38.7837 128.85 38.7837V39.1145C128.837 39.1145 128.824 39.1145 128.811 39.1145C128.798 39.1113 128.786 39.1097 128.773 39.1097C128.508 39.1097 128.3 39.1912 128.15 39.3543C127.999 39.5141 127.924 39.7426 127.924 40.0399V41.325H127.584ZM129.598 42.2791C129.479 42.2791 129.366 42.26 129.257 42.2216C129.152 42.1832 129.061 42.1257 128.984 42.049L129.142 41.7949C129.206 41.8556 129.275 41.9019 129.348 41.9339C129.425 41.9691 129.51 41.9866 129.602 41.9866C129.714 41.9866 129.81 41.9547 129.89 41.8907C129.973 41.83 130.052 41.7213 130.125 41.5647L130.288 41.1955L130.326 41.1427L131.362 38.8076H131.698L130.437 41.627C130.366 41.7901 130.288 41.9195 130.202 42.0154C130.119 42.1113 130.028 42.1784 129.929 42.2168C129.829 42.2584 129.719 42.2791 129.598 42.2791ZM130.269 41.3969L129.109 38.8076H129.463L130.49 41.1188L130.269 41.3969Z" fill="white"/>
</g>
<defs>
<clipPath id="clip0_8_572">
<rect width="149" height="55" fill="white"/>
</clipPath>
</defs>
</svg>
